<?xml version="1.0" encoding="utf-8"?>
<!-- Generator: Adobe Illustrator 27.0.0, SVG Export Plug-In . SVG Version: 6.00 Build 0)  -->
<svg version="1.1" id="Layer_1" xmlns="http://www.w3.org/2000/svg" xmlns:xlink="http://www.w3.org/1999/xlink" x="0px" y="0px"
	 viewBox="0 0 3000 2498.2" style="enable-background:new 0 0 3000 2498.2;" xml:space="preserve">
<style type="text/css">
	.st0{fill:#1D2232;}
	.st1{fill:#FFF682;}
	.st2{fill:#060B27;}
	.st3{fill:#8E31F7;}
	.st4{opacity:0.26;}
	.st5{opacity:0.15;fill:#1D2232;}
	.st6{opacity:8.000000e-02;fill:#1D2232;}
	.st7{fill:#FFFFFF;}
	.st8{fill:#7F7F7F;}
	.st9{fill:#636363;}
	.st10{opacity:0.15;}
	.st11{opacity:8.000000e-02;}
	.st12{fill:#E2E2E2;}
	.st13{fill:#969696;}
</style>
<g>
	<path class="st3" d="M439.1,2311.8H332.9l-83.5-168.9h-87.9v168.9H69.8v-445.9H272c47.3,0,83.9,12.8,109.9,38.3
		c25.9,25.5,38.9,59.2,38.9,101.1c0,30.1-6.8,56.3-20.4,78.5c-13.6,22.2-33.2,38.5-58.7,49L439.1,2311.8z M314.7,2044.6
		c9.6-9.4,14.4-22.5,14.4-39.2c0-16.7-4.9-30.1-14.8-40.2c-9.8-10-24-15.1-42.4-15.1H161.5v108.6H272
		C290.9,2058.7,305.1,2054,314.7,2044.6z"/>
	<path class="st3" d="M540.6,2311.8h-95.9l160.7-445.9h103.7l160.3,445.9h-91.2l-27.1-76.6H567.9L540.6,2311.8z M660.3,1978.9
		l-1.5,0.1l-61.8,174h124.8L660.3,1978.9z"/>
	<path class="st3" d="M1322,2311.8h-113l-126.7-191.6l-68,74.1v117.5h-91.7v-445.9h91.7v212.3l181.5-212.3h119.3l-169.5,185.3
		L1322,2311.8z"/>
	<path class="st3" d="M1678.6,2227.6v84.1h-320.9v-445.9h320.9v84.2h-229.2v93.6h219.8v84.1h-219.8v99.9H1678.6z"/>
	<path class="st7" d="M2134.5,1922.4c43.5,44,65.3,99.4,65.3,166.4c0,67-21.8,122.5-65.3,166.4c-43.5,44-99,65.9-166.4,65.9
		c-67.4,0-122.9-22-166.4-65.9c-43.5-43.9-65.3-99.4-65.3-166.4c0-67,21.8-122.5,65.3-166.4c43.5-43.9,99-65.9,166.4-65.9
		C2035.5,1856.5,2091,1878.5,2134.5,1922.4z M2065.5,2194c25.1-26.6,37.7-61.6,37.7-105.2c0-43.5-12.6-78.6-37.7-105.2
		c-25.1-26.6-57.6-39.9-97.3-39.9s-72.2,13.3-97.3,39.9c-25.1,26.6-37.7,61.6-37.7,105.2c0,43.5,12.6,78.6,37.7,105.2
		c25.1,26.6,57.6,39.9,97.3,39.9S2040.4,2220.6,2065.5,2194z"/>
	<path class="st7" d="M2365,2311.8h-91.7v-445.9h295.8v84.2H2365v93.6h194.7v84.1H2365V2311.8z"/>
	<path class="st7" d="M2726.1,2311.8h-91.7v-445.9h295.8v84.2h-204.1v93.6h194.7v84.1h-194.7V2311.8z"/>
	<g>
		<path class="st3" d="M2028.2,789.9c0,198.6-122.9,369.1-296.4,439.4c-29.4,12.3-60.2,21.2-91.9,27.1c-17.7,3.4-36,5.7-54.4,7.1
			c-10.5,0.8-21.2,1-31.8,1h-282.5l-63.2-49.6l-234.3-184.5h583.4c2.8,0,5.9,0,8.8-0.3c133.6-6.8,238.9-123.2,227.2-260.9
			c-10.7-125.6-121.4-219.3-247.4-219.3h-574V402.9c0-48.2,39.2-87.5,87.6-87.5H1220V201.8c0-13.7,11.1-24.8,24.8-24.8h97.2
			c13.7,0,24.8,11.1,24.8,24.8v113.6h96.5V201.8c0-13.7,11.1-24.8,24.8-24.8h98.3c13.7,0,24.8,11.1,24.8,24.8V319
			C1845.7,347.3,2028.2,547.8,2028.2,789.9z"/>
	</g>
	<g class="st4">
		<path class="st0" d="M1914.6,672.8v7.1c-4,191.7-158,345.6-348.6,350.1c55.4-2.9,106-24.5,145.3-59c0,0,0,0,0.2,0
			c0.5-0.3,0.8-0.6,1.3-1.1c1.9-1.8,6-5.3,11.1-10.5c47.9-48,75.6-116,69.3-190.4c-10.6-125.7-121.3-219.3-247.5-219.3h-574V402.8
			c0-48.2,39.3-87.5,87.6-87.5H1220V201.7c0-13.7,11.1-24.6,24.8-24.6h97.1c13.7,0,24.8,11,24.8,24.6v113.6h96.5V201.7
			c0-13.7,11.1-24.6,24.8-24.6h98.3c13.7,0,24.8,11,24.8,24.6v117.6C1783.1,345.6,1914.6,494,1914.6,672.8z"/>
	</g>
	<path class="st5" d="M1731.8,1229.3c-29.4,12.2-60.1,21.1-91.9,27.1c-17.7,3.4-35.9,5.7-54.4,7c-10.4,0.8-21.1,1-31.8,1h-282.4
		l-63.3-49.7l-234.3-184.5h505l154.9,122.1l54.4,42.7L1731.8,1229.3z"/>
	<polygon class="st7" points="2028.4,1562.4 1649.7,1562.4 1271.2,1264.4 1208,1214.7 973.7,1030.1 971.6,1028.6 971.6,730.5 
		1289.2,980.4 1352.4,1030.1 1585.4,1213.6 1639.8,1256.3 2028.1,1562.2 	"/>
	<g>
		<path class="st7" d="M1350.4,1562.4h-291.2c-48.3,0-87.5-39.2-87.5-87.5v-210.5L1350.4,1562.4z"/>
	</g>
	<path class="st6" d="M1914.6,672.8v7.1c-4,191.7-158,345.6-348.6,350.1c55.4-2.9,106-24.5,145.3-59c0,0,0,0,0.2,0
		c0.5-0.3,0.8-0.6,1.3-1.1c1.9-1.8,6-5.3,11.1-10.5c37.9-36.6,146.3-157.1,120.2-312.2c-26.9-159.8-147.6-295.5-646-331.9h22.1
		V201.7c0-13.7,11.1-24.6,24.8-24.6h97.1c13.7,0,24.8,11,24.8,24.6v113.6h96.5V201.7c0-13.7,11.1-24.6,24.8-24.6h98.3
		c13.7,0,24.8,11,24.8,24.6v117.6C1783.1,345.6,1914.6,494,1914.6,672.8z"/>
</g>
</svg>
